<?xml version="1.0" encoding="utf-8"?>
<!-- Generator: Adobe Illustrator 14.0.0, SVG Export Plug-In . SVG Version: 6.00 Build 43363)  -->
<!DOCTYPE svg PUBLIC "-//W3C//DTD SVG 1.1//EN" "http://www.w3.org/Graphics/SVG/1.1/DTD/svg11.dtd">
<svg version="1.1" id="Layer_1" xmlns="http://www.w3.org/2000/svg" xmlns:xlink="http://www.w3.org/1999/xlink" x="0px" y="0px"
	 width="63.5px" height="64.833px" viewBox="0 0 63.5 64.833" enable-background="new 0 0 63.5 64.833" xml:space="preserve">
<g opacity="0.2">
	<g>
		<rect x="7" y="4.999" fill="none" width="55" height="58.953"/>
		<path fill="#333333" d="M7,63.952c19-0.487,37-5.948,55-5.948V4.999c-18,0-36,5.46-55,5.948V63.952z"/>
	</g>
</g>
<path fill="#FFFFFF" d="M60.5,1.882c-19,0-38.253,5.986-58,5.986v54.044c19.747,0,39-5.986,58-5.986V1.882z"/>
<path fill="none" stroke="#010101" stroke-miterlimit="10" d="M60.5,1.882c-19,0-38.253,5.986-58,5.986v54.044
	c19.747,0,39-5.986,58-5.986V1.882z"/>
<path fill-rule="evenodd" clip-rule="evenodd" fill="#999999" d="M12.514,50.211c-0.181,0.451-0.343,0.91-0.554,1.349
	c-0.08,0.166-0.253,0.344-0.421,0.407c-0.287,0.109-0.483-0.032-0.59-0.333c-0.158-0.447-0.356-0.879-0.539-1.318
	c-0.053,0.013-0.107,0.024-0.161,0.037c-0.015,0.164-0.042,0.328-0.043,0.493c-0.006,0.906-0.013,1.812,0.003,2.718
	c0.007,0.338-0.108,0.48-0.457,0.461c-0.311-0.018-0.626-0.006-0.938,0.016c-0.31,0.023-0.399-0.117-0.399-0.403
	c0.005-2.684,0.006-5.366,0-8.051c-0.001-0.297,0.113-0.397,0.407-0.415c1.315-0.083,1.315-0.1,1.695,1.164
	c0.238,0.795,0.475,1.59,0.717,2.382c0.044,0.146,0.105,0.284,0.279,0.421c0.054-0.145,0.114-0.287,0.159-0.435
	c0.315-1.054,0.646-2.104,0.932-3.168c0.101-0.371,0.257-0.519,0.644-0.543c1.254-0.08,1.254-0.101,1.254,1.153
	c0,2.32,0.001,4.642,0,6.963c0,0.66,0,0.66-0.635,0.709c-1.147,0.082-1.147,0.076-1.147-1.094c0-0.677,0.002-1.352-0.002-2.027
	c0-0.151-0.021-0.301-0.033-0.454C12.629,50.231,12.571,50.222,12.514,50.211"/>
<path fill-rule="evenodd" clip-rule="evenodd" fill="#999999" d="M23.397,48.938v2.694c0,1.088,0,1.091-1.093,1.247
	c-0.689,0.098-0.689,0.097-0.689-0.596c-0.001-2.535,0.01-5.072-0.009-7.604c-0.003-0.421,0.093-0.597,0.543-0.646
	c0.988-0.11,0.777-0.152,1.095,0.574c0.363,0.827,0.707,1.665,1.063,2.494c0.063,0.148,0.153,0.283,0.231,0.425
	c0.047-0.015,0.094-0.028,0.141-0.042c0.016-0.166,0.045-0.332,0.046-0.494c0.004-0.94,0.014-1.88-0.005-2.815
	c-0.007-0.369,0.088-0.538,0.496-0.601c1.278-0.201,1.278-0.221,1.278,1.058c0,2.354-0.01,4.71,0.01,7.062
	c0.003,0.43-0.111,0.596-0.554,0.643c-0.91,0.098-0.742,0.242-1.088-0.563c-0.354-0.83-0.707-1.66-1.065-2.49
	c-0.063-0.147-0.154-0.281-0.233-0.42C23.509,48.889,23.453,48.913,23.397,48.938"/>
<path fill-rule="evenodd" clip-rule="evenodd" fill="#999999" d="M20.374,49.282c0,1.117-0.01,2.238,0.006,3.354
	c0.006,0.367-0.082,0.532-0.492,0.58c-1.29,0.151-1.306,0.165-1.289-1.132c0.006-0.422-0.1-0.563-0.546-0.511
	c-0.431,0.052-0.566,0.188-0.561,0.625c0.018,1.314,0,1.313-1.318,1.431c-0.338,0.029-0.463-0.057-0.461-0.403
	c0.012-2.254-0.008-4.504,0.014-6.76c0.011-1.17,0.545-1.699,1.724-1.833c0.46-0.053,0.921-0.112,1.381-0.153
	c0.985-0.084,1.499,0.324,1.525,1.304c0.032,1.162,0.008,2.334,0.008,3.5C20.367,49.283,20.371,49.283,20.374,49.282 M18.589,48.043
	c0-0.542-0.018-1.083,0.006-1.627c0.017-0.37-0.186-0.392-0.461-0.323c-0.255,0.062-0.637-0.093-0.633,0.428
	c0.008,1.084,0.005,2.168,0.001,3.252c-0.002,0.514,0.381,0.283,0.638,0.287c0.289,0.006,0.471-0.086,0.455-0.44
	C18.573,49.099,18.589,48.567,18.589,48.043"/>
<path fill-rule="evenodd" clip-rule="evenodd" fill="#999999" d="M51.281,44.284c0-0.905-0.009-1.811,0.002-2.717
	c0.014-1.228,0.527-1.77,1.756-1.834c0.461-0.024,0.922-0.045,1.383-0.051c1.096-0.012,1.601,0.453,1.639,1.568
	c0.038,1.168,0.014,2.339,0.015,3.508c0,0.708,0.019,1.417-0.009,2.124c-0.046,1.165-0.545,1.626-1.702,1.66
	c-0.478,0.015-0.955,0.032-1.433,0.054c-1.082,0.046-1.596-0.413-1.648-1.497c-0.001-0.032-0.002-0.065-0.002-0.098V44.284z
	 M54.288,41.219c-0.264,0.008-0.444,0.034-0.619,0.019c-0.464-0.047-0.627,0.127-0.616,0.614c0.029,1.556,0.031,3.117-0.001,4.677
	c-0.01,0.493,0.187,0.567,0.608,0.537c0.378-0.027,0.657-0.021,0.64-0.554c-0.037-1.163-0.012-2.329-0.012-3.495V41.219z"/>
<path fill-rule="evenodd" clip-rule="evenodd" fill="#999999" d="M42.635,48.094c0.261-0.037,0.556-0.048,0.84-0.13
	c0.104-0.03,0.253-0.234,0.261-0.35c0.03-0.463,0.044-0.932-0.007-1.381c-0.016-0.143-0.229-0.315-0.386-0.328
	c-0.299-0.027-0.621,0.053-0.934,0.084c-0.925,0.094-1.556-0.384-1.607-1.305c-0.044-0.766-0.04-1.543-0.001-2.32
	c0.041-0.805,0.521-1.358,1.319-1.522c0.672-0.138,1.351-0.229,2.022-0.274c0.79-0.05,1.211,0.348,1.311,1.125
	c0.004,0.031,0.008,0.064,0.012,0.096c0.136,1.354-0.095,1.609-1.465,1.625c-0.109,0.002-0.221-0.147-0.29-0.256
	c-0.044-0.067-0.011-0.19-0.012-0.289c-0.003-0.74-0.199-0.873-0.944-0.588c-0.1,0.037-0.227,0.219-0.232,0.325
	c-0.023,0.48-0.04,0.964,0.01,1.429c0.016,0.139,0.238,0.303,0.394,0.313c0.335,0.022,0.688-0.054,1.033-0.073
	c0.826-0.05,1.409,0.381,1.472,1.203c0.063,0.826,0.061,1.672,0.005,2.512c-0.052,0.781-0.574,1.291-1.342,1.416
	c-0.641,0.103-1.284,0.191-1.926,0.26c-0.763,0.084-1.27-0.297-1.358-1.041c-0.049-0.398-0.042-0.816-0.016-1.229
	c0.007-0.11,0.178-0.237,0.279-0.35c0.018-0.021,0.063-0.019,0.096-0.025c0.426-0.073,0.977-0.327,1.24-0.163
	C42.644,47.005,42.563,47.61,42.635,48.094"/>
<path fill-rule="evenodd" clip-rule="evenodd" fill="#999999" d="M39.953,48.492c0.043,0.097,0.055,0.108,0.056,0.123
	c0.085,1.366,0.085,1.362-1.284,1.579c-0.841,0.134-1.681,0.26-2.52,0.415c-0.317,0.06-0.439-0.019-0.438-0.347
	c0.008-2.684,0.008-5.367,0-8.049c0-0.306,0.129-0.423,0.416-0.468c1.151-0.185,2.304-0.371,3.456-0.56
	c0.297-0.047,0.405,0.041,0.387,0.351c-0.08,1.345,0.073,1.103-1.121,1.3c-1.351,0.225-1.352,0.219-1.35,1.59
	c0,0.703,0,0.701,0.7,0.588c0.115-0.018,0.232-0.024,0.346-0.056c0.339-0.094,0.502,0.005,0.432,0.373
	c-0.01,0.05-0.007,0.099-0.01,0.149c-0.044,1.124,0.005,0.91-0.957,1.061c-0.375,0.059-0.547,0.176-0.518,0.579
	c0.03,0.421,0.025,0.853,0.001,1.283c-0.022,0.38,0.134,0.465,0.492,0.396C38.68,48.677,39.317,48.591,39.953,48.492"/>
<path fill-rule="evenodd" clip-rule="evenodd" fill="#999999" d="M34.07,45.711c0,0.224,0.004,0.369-0.001,0.515
	c-0.033,0.979-0.034,0.992-0.999,1.153c-0.359,0.062-0.493,0.187-0.484,0.56c0.023,0.933-0.002,1.877,0.013,2.811
	c0.006,0.318-0.062,0.48-0.431,0.549c-1.354,0.251-1.354,0.264-1.354-1.089c0-2.319,0.015-4.644-0.013-6.96
	c-0.004-0.491,0.158-0.637,0.618-0.701c1.036-0.148,2.073-0.335,3.11-0.525c0.361-0.068,0.492,0.015,0.463,0.402
	c-0.094,1.205,0.111,1.031-1.09,1.24c-1.309,0.229-1.311,0.225-1.308,1.48c0.003,0.866-0.124,0.838,0.822,0.676
	C33.612,45.789,33.806,45.756,34.07,45.711"/>
<path fill-rule="evenodd" clip-rule="evenodd" fill="#999999" d="M47.429,45.333c0-1.053-0.012-2.104,0.007-3.157
	c0.006-0.347-0.063-0.493-0.455-0.446c-0.899,0.11-0.875,0.09-0.866-0.815c0.003-0.462,0.141-0.649,0.622-0.69
	c1.134-0.094,2.269-0.215,3.403-0.316c0.34-0.03,0.496,0.066,0.435,0.422c-0.014,0.081-0.008,0.165-0.013,0.247
	c-0.048,0.829-0.049,0.848-0.86,0.896c-0.401,0.023-0.5,0.174-0.496,0.555c0.016,2.086-0.002,4.176,0.016,6.262
	c0.003,0.411-0.077,0.586-0.537,0.619C47.43,49,47.429,49.028,47.429,47.75V45.333z"/>
<path fill-rule="evenodd" clip-rule="evenodd" fill="#999999" d="M29.54,47.308c0,1.298-0.013,2.6,0.007,3.895
	c0.006,0.383-0.071,0.562-0.509,0.629c-1.28,0.197-1.28,0.215-1.28-1.088c0-2.317,0.011-4.638-0.01-6.951
	c-0.004-0.457,0.1-0.654,0.595-0.726c1.196-0.174,1.197-0.198,1.197,0.986V47.308z"/>
<path fill="#999999" d="M56.073,52.461c-15.889,0.093-31.777,5.435-47.667,5.526c-0.229,0.002-0.417-0.114-0.417-0.344
	c0-0.231,0.188-0.347,0.417-0.349c15.89-0.093,31.778-5.435,47.667-5.526c0.23-0.002,0.418,0.115,0.418,0.344
	C56.491,52.344,56.304,52.46,56.073,52.461"/>
<path fill="#999999" d="M56.073,51.075c-15.889,0.093-31.777,5.436-47.667,5.527c-0.1,0-0.179-0.074-0.179-0.174
	c0-0.098,0.079-0.172,0.179-0.172c15.89-0.094,31.778-5.435,47.667-5.529c0.099,0,0.179,0.076,0.179,0.174
	C56.252,51,56.172,51.074,56.073,51.075"/>
<path fill="#999999" d="M56.073,7.078C40.185,7.17,24.296,12.512,8.406,12.605c-0.229,0-0.417-0.115-0.417-0.345
	c0-0.231,0.188-0.347,0.417-0.348c15.89-0.093,31.778-5.435,47.667-5.527c0.23-0.001,0.418,0.115,0.418,0.344
	C56.491,6.961,56.304,7.077,56.073,7.078"/>
<path fill="#999999" d="M56.073,8.117C40.185,8.21,24.296,13.552,8.406,13.644c-0.1,0-0.179-0.074-0.179-0.173
	c0-0.098,0.079-0.173,0.179-0.174c15.89-0.092,31.778-5.434,47.667-5.526c0.099-0.001,0.179,0.074,0.179,0.172
	C56.252,8.042,56.172,8.116,56.073,8.117"/>
<path fill="#999999" d="M10.429,23.979c-1.494,0.012-2.416-1.012-2.416-2.726v-2.342c0-1.718,0.848-2.485,2.213-2.525
	c0.812-0.024,1.624-0.061,2.436-0.109c1.383-0.085,2.231,0.612,2.231,2.329v1.292c0,0.166-0.11,0.286-0.295,0.319
	c-0.67,0.091-1.341,0.174-2.011,0.251c-0.166,0.01-0.295-0.094-0.295-0.26v-1.457c0-0.129-0.111-0.234-0.24-0.227
	c-0.399,0.02-0.8,0.039-1.199,0.054c-0.166,0.005-0.295,0.103-0.295,0.251v2.397c0,0.259,0.129,0.458,0.479,0.462
	c0.479-0.007,0.96-0.018,1.439-0.033c1.513-0.051,2.416,0.859,2.416,2.578v2.306c0,1.713-0.849,2.566-2.214,2.649
	c-0.812,0.048-1.623,0.085-2.435,0.11c-1.384,0.04-2.231-0.741-2.231-2.455v-1.292c0-0.166,0.128-0.276,0.294-0.296
	c0.671-0.04,1.341-0.089,2.012-0.146c0.184-0.006,0.295,0.099,0.295,0.266v1.458c0,0.128,0.092,0.237,0.239,0.231
	c0.406-0.016,0.812-0.034,1.218-0.056c0.147-0.008,0.276-0.106,0.276-0.236v-2.38c0-0.258-0.11-0.435-0.479-0.435
	C11.388,23.969,10.907,23.978,10.429,23.979"/>
<path fill="#999999" d="M19.319,17.87c-0.147,0.018-0.239,0.14-0.239,0.269v2.508c0,0.166,0.11,0.264,0.295,0.242
	c0.534-0.067,1.07-0.135,1.605-0.207c0.184-0.025,0.294,0.071,0.275,0.239c-0.037,0.564-0.072,1.13-0.109,1.694
	c-0.02,0.15-0.148,0.278-0.314,0.3c-0.504,0.067-1.008,0.132-1.513,0.193c-0.147,0.019-0.239,0.141-0.239,0.27v2.729
	c0,0.166,0.092,0.267,0.239,0.248c1.033-0.126,2.065-0.264,3.1-0.413c0.184-0.025,0.295,0.069,0.276,0.238
	c-0.037,0.564-0.074,1.129-0.11,1.694c-0.019,0.15-0.148,0.28-0.313,0.304c-1.84,0.26-3.678,0.492-5.516,0.678
	c-0.185,0.019-0.277-0.083-0.277-0.249V16.248c0-0.165,0.093-0.285,0.277-0.304c1.888-0.191,3.775-0.43,5.663-0.701
	c0.184-0.026,0.295,0.068,0.276,0.237c-0.037,0.565-0.074,1.13-0.11,1.696c-0.019,0.149-0.148,0.279-0.313,0.302
	C21.287,17.618,20.303,17.749,19.319,17.87"/>
<path fill="#999999" d="M26.107,27.595c-1.364,0.219-2.213-0.431-2.213-2.146v-7.932c-0.001-1.716,0.849-2.616,2.213-2.834
	c0.781-0.125,1.562-0.254,2.344-0.384c1.364-0.228,2.231,0.398,2.231,2.113v1.366c0,0.166-0.129,0.298-0.295,0.327
	c-0.67,0.138-1.341,0.275-2.011,0.412c-0.185,0.031-0.296-0.062-0.296-0.228v-1.475c0-0.148-0.129-0.218-0.294-0.192
	c-0.352,0.059-0.701,0.117-1.052,0.173c-0.149,0.024-0.24,0.15-0.24,0.279v7.969c0,0.165,0.111,0.258,0.295,0.229
	c0.345-0.057,0.688-0.113,1.033-0.17c0.147-0.024,0.258-0.153,0.258-0.282v-1.366c0-0.166,0.111-0.295,0.296-0.325
	c0.67-0.137,1.341-0.274,2.011-0.413c0.166-0.028,0.295,0.061,0.295,0.227v1.401c0,1.716-0.866,2.639-2.231,2.867
	C27.669,27.342,26.889,27.47,26.107,27.595"/>
<path fill="#999999" d="M34.464,26.189c-1.365,0.231-2.214-0.396-2.214-2.112V13.914c0-0.167,0.093-0.275,0.277-0.307
	c0.683-0.116,1.364-0.233,2.048-0.349c0.165-0.027,0.276,0.046,0.276,0.212V23.67c0,0.148,0.129,0.218,0.295,0.19
	c0.406-0.068,0.812-0.137,1.217-0.204c0.13-0.022,0.24-0.113,0.24-0.28c0.007-3.401,0.013-6.802,0.019-10.204
	c0-0.165,0.129-0.279,0.296-0.307c0.67-0.111,1.34-0.218,2.01-0.323c0.185-0.031,0.296,0.044,0.296,0.21v10.165
	c0,1.716-0.849,2.623-2.232,2.849C36.148,25.905,35.306,26.046,34.464,26.189"/>
<path fill="#999999" d="M43.908,22.348c-0.166,0.023-0.295,0.132-0.295,0.279v1.864c0,0.166-0.093,0.288-0.277,0.313
	c-0.682,0.092-1.365,0.19-2.047,0.289c-0.147,0.021-0.277-0.069-0.277-0.235v-12.36c0-0.166,0.13-0.295,0.277-0.317
	c1.42-0.209,2.841-0.402,4.261-0.572c1.365-0.163,2.233,0.529,2.233,2.244v5.552c0,0.978-0.296,1.653-0.795,2.02
	c-0.092,0.066-0.109,0.214-0.055,0.357c0.309,0.722,0.615,1.447,0.923,2.173c0.073,0.158,0.018,0.311-0.185,0.332
	c-0.684,0.069-1.365,0.144-2.048,0.225c-0.147,0.019-0.277-0.04-0.351-0.197c-0.265-0.632-0.529-1.263-0.793-1.893
	c-0.037-0.088-0.111-0.133-0.222-0.119C44.143,22.317,44.025,22.333,43.908,22.348 M45.181,14.144c0-0.166-0.11-0.264-0.295-0.24
	c-0.344,0.043-0.688,0.087-1.033,0.133c-0.147,0.019-0.239,0.141-0.239,0.27v5.59c0,0.166,0.11,0.263,0.295,0.237
	c0.344-0.045,0.688-0.089,1.033-0.131c0.147-0.019,0.239-0.141,0.239-0.307V14.144z"/>
<path fill="#999999" d="M52.301,13.222c-0.146,0.008-0.239,0.124-0.239,0.254v2.508c0,0.166,0.11,0.27,0.295,0.26
	c0.535-0.029,1.07-0.052,1.605-0.07c0.184-0.006,0.295,0.102,0.275,0.268c-0.036,0.56-0.073,1.121-0.109,1.682
	c-0.019,0.148-0.148,0.263-0.313,0.269c-0.505,0.018-1.009,0.041-1.514,0.067c-0.146,0.009-0.239,0.124-0.239,0.254v2.73
	c0,0.167,0.092,0.271,0.239,0.263c1.034-0.055,2.066-0.092,3.1-0.108c0.184-0.003,0.295,0.107,0.277,0.273
	c-0.037,0.561-0.074,1.12-0.111,1.681c-0.019,0.147-0.147,0.259-0.313,0.262c-1.838,0.031-3.678,0.131-5.516,0.282
	c-0.185,0.015-0.276-0.088-0.276-0.255V11.484c0-0.167,0.092-0.284,0.276-0.301c1.888-0.154,3.774-0.255,5.663-0.283
	c0.184-0.002,0.295,0.106,0.277,0.273c-0.037,0.56-0.074,1.12-0.111,1.68c-0.019,0.148-0.147,0.261-0.313,0.263
	C54.27,13.132,53.285,13.168,52.301,13.222"/>
<path fill="#999999" d="M10.62,38.463c-1.476,0.015-2.387-0.994-2.387-2.687v-2.313c0-1.694,0.838-2.455,2.186-2.498
	c0.802-0.025,1.604-0.064,2.404-0.114c1.367-0.085,2.205,0.602,2.205,2.298v1.275c0,0.163-0.109,0.282-0.292,0.315
	c-0.662,0.091-1.323,0.175-1.985,0.25c-0.164,0.012-0.292-0.092-0.292-0.256v-1.438c0-0.127-0.109-0.23-0.236-0.223
	c-0.395,0.022-0.789,0.04-1.184,0.056c-0.164,0.007-0.292,0.103-0.292,0.248v2.368c0,0.254,0.128,0.45,0.474,0.454
	c0.474-0.008,0.947-0.02,1.42-0.036c1.495-0.054,2.388,0.846,2.388,2.542v2.277c0,1.691-0.838,2.535-2.187,2.619
	c-0.802,0.049-1.603,0.088-2.404,0.114c-1.366,0.044-2.204-0.728-2.204-2.419v-1.275c0-0.164,0.128-0.273,0.292-0.293
	c0.662-0.041,1.323-0.091,1.984-0.15c0.183-0.006,0.292,0.099,0.292,0.264v1.438c0,0.127,0.091,0.234,0.237,0.229
	c0.4-0.018,0.802-0.036,1.202-0.057c0.146-0.008,0.272-0.107,0.272-0.234v-2.35c0-0.256-0.108-0.43-0.474-0.43
	C11.567,38.448,11.094,38.458,10.62,38.463"/>
<path fill="#999999" d="M19.399,32.417c-0.146,0.017-0.237,0.138-0.237,0.266v2.476c0,0.164,0.109,0.261,0.292,0.238
	c0.527-0.065,1.056-0.133,1.584-0.205c0.183-0.024,0.292,0.07,0.273,0.236c-0.036,0.557-0.073,1.115-0.109,1.674
	c-0.019,0.147-0.146,0.273-0.31,0.295c-0.498,0.067-0.996,0.131-1.493,0.192c-0.146,0.017-0.237,0.14-0.237,0.265v2.696
	c0,0.164,0.091,0.263,0.237,0.245c1.02-0.126,2.04-0.263,3.06-0.408c0.183-0.027,0.292,0.067,0.273,0.233
	c-0.037,0.558-0.072,1.114-0.109,1.674c-0.019,0.147-0.146,0.274-0.31,0.299c-1.816,0.259-3.631,0.488-5.446,0.675
	c-0.182,0.018-0.273-0.082-0.273-0.248V30.818c0-0.164,0.092-0.283,0.273-0.3c1.864-0.192,3.729-0.429,5.592-0.696
	c0.183-0.026,0.292,0.068,0.273,0.234c-0.037,0.557-0.072,1.116-0.109,1.673c-0.019,0.149-0.146,0.277-0.31,0.3
	C21.342,32.167,20.37,32.298,19.399,32.417"/>
<path fill="#999999" d="M24.244,42.309c-0.182,0.028-0.273-0.069-0.273-0.231V32.059c0-1.695,0.838-2.584,2.186-2.8
	c0.771-0.123,1.543-0.25,2.313-0.379c1.348-0.226,2.204,0.393,2.204,2.087v10.019c0,0.164-0.127,0.295-0.292,0.322
	c-0.661,0.112-1.323,0.225-1.985,0.335c-0.182,0.03-0.291-0.062-0.291-0.225v-2.097c0-0.162-0.109-0.252-0.291-0.223
	c-0.347,0.057-0.692,0.113-1.039,0.169c-0.146,0.024-0.236,0.148-0.236,0.275v2.132c0,0.163-0.109,0.29-0.273,0.316
	C25.592,42.1,24.918,42.206,24.244,42.309 M28.105,36.591v-5.228c0-0.127-0.109-0.218-0.255-0.194l-1.075,0.176
	c-0.146,0.024-0.236,0.147-0.236,0.274v5.229c0,0.164,0.109,0.255,0.291,0.226c0.341-0.056,0.681-0.111,1.021-0.168
	C28.015,36.862,28.105,36.755,28.105,36.591"/>
<path fill="#999999" d="M35.3,38.12c-0.163,0.027-0.291,0.141-0.291,0.287v1.838c0,0.164-0.091,0.289-0.272,0.32
	c-0.675,0.114-1.349,0.229-2.023,0.344c-0.145,0.025-0.272-0.062-0.272-0.226V28.479c0-0.164,0.128-0.296,0.272-0.32
	c1.403-0.24,2.806-0.478,4.208-0.71c1.348-0.222,2.204,0.41,2.204,2.104v5.482c0,0.966-0.291,1.648-0.783,2.037
	c-0.091,0.069-0.109,0.217-0.056,0.355c0.305,0.697,0.608,1.396,0.912,2.096c0.073,0.151,0.019,0.307-0.183,0.338
	c-0.674,0.106-1.348,0.215-2.022,0.326c-0.145,0.023-0.272-0.027-0.345-0.18c-0.262-0.613-0.522-1.225-0.783-1.837
	c-0.038-0.085-0.109-0.128-0.22-0.109C35.53,38.081,35.414,38.101,35.3,38.12 M36.557,29.969c0-0.164-0.109-0.255-0.291-0.225
	c-0.34,0.057-0.68,0.114-1.021,0.171c-0.146,0.025-0.236,0.15-0.236,0.277v5.519c0,0.163,0.108,0.255,0.291,0.224
	c0.34-0.058,0.681-0.113,1.021-0.171c0.146-0.024,0.236-0.149,0.236-0.313V29.969z"/>
<path fill="#999999" d="M42.859,39.291c-1.349,0.187-2.188-0.448-2.188-2.144v-7.833c0-1.693,0.839-2.587,2.188-2.774
	c0.771-0.107,1.542-0.208,2.313-0.303c1.348-0.164,2.204,0.516,2.204,2.209v1.348c0,0.164-0.127,0.287-0.291,0.304
	c-0.663,0.095-1.323,0.196-1.985,0.301c-0.183,0.023-0.291-0.073-0.291-0.237v-1.457c0-0.145-0.129-0.221-0.292-0.2
	c-0.347,0.045-0.692,0.09-1.038,0.136c-0.146,0.02-0.236,0.141-0.236,0.269v7.868c0,0.163,0.108,0.259,0.291,0.235
	c0.34-0.047,0.68-0.091,1.02-0.135c0.146-0.018,0.256-0.142,0.256-0.27v-1.346c0-0.164,0.108-0.287,0.291-0.311
	c0.662-0.105,1.322-0.207,1.985-0.301c0.164-0.018,0.291,0.078,0.291,0.242v1.384c0,1.696-0.856,2.545-2.204,2.71
	C44.401,39.083,43.631,39.185,42.859,39.291"/>
<path fill="#999999" d="M51.838,32.978c-0.163,0.01-0.291,0.127-0.291,0.272v4.864c0,0.164-0.091,0.279-0.273,0.291
	c-0.674,0.044-1.347,0.095-2.021,0.154c-0.146,0.013-0.273-0.084-0.273-0.249V26.105c0-0.164,0.128-0.284,0.273-0.297
	c0.675-0.059,1.348-0.11,2.021-0.154c0.183-0.013,0.273,0.092,0.273,0.255v4.627c0,0.164,0.109,0.265,0.291,0.254
	c0.419-0.023,0.839-0.046,1.258-0.064c0.146-0.007,0.255-0.121,0.255-0.284v-4.627c0-0.163,0.109-0.278,0.255-0.283
	c0.68-0.027,1.36-0.044,2.04-0.052c0.164-0.002,0.254,0.107,0.254,0.27v12.206c0,0.164-0.091,0.273-0.254,0.274
	c-0.68,0.009-1.36,0.026-2.04,0.054c-0.146,0.004-0.255-0.101-0.255-0.265v-4.846c0-0.163-0.128-0.267-0.291-0.26
	C52.652,32.933,52.245,32.954,51.838,32.978"/>
<path fill-rule="evenodd" clip-rule="evenodd" fill="#881719" d="M12.514,49.865c-0.181,0.45-0.343,0.91-0.554,1.347
	c-0.08,0.168-0.253,0.346-0.421,0.409c-0.287,0.108-0.483-0.034-0.59-0.334c-0.158-0.446-0.356-0.878-0.539-1.317
	c-0.053,0.012-0.107,0.024-0.161,0.035c-0.015,0.166-0.042,0.33-0.043,0.494c-0.006,0.905-0.013,1.811,0.003,2.717
	c0.007,0.34-0.108,0.481-0.457,0.463c-0.311-0.019-0.626-0.008-0.938,0.016c-0.31,0.023-0.399-0.118-0.399-0.404
	c0.005-2.684,0.006-5.367,0-8.051c-0.001-0.296,0.113-0.396,0.407-0.415c1.315-0.083,1.315-0.101,1.695,1.164
	c0.238,0.795,0.475,1.591,0.717,2.383c0.044,0.144,0.105,0.283,0.279,0.42c0.054-0.145,0.114-0.286,0.159-0.435
	c0.315-1.053,0.646-2.104,0.932-3.167c0.101-0.372,0.257-0.521,0.644-0.544c1.254-0.08,1.254-0.102,1.254,1.152
	c0,2.321,0.001,4.643,0,6.963c0,0.66,0,0.662-0.635,0.709c-1.147,0.084-1.147,0.078-1.147-1.094c0-0.676,0.002-1.351-0.002-2.025
	c0-0.152-0.021-0.303-0.033-0.455C12.629,49.886,12.571,49.875,12.514,49.865"/>
<path fill-rule="evenodd" clip-rule="evenodd" fill="#881719" d="M23.397,48.592v2.694c0,1.089,0,1.092-1.093,1.248
	c-0.689,0.098-0.689,0.096-0.689-0.598c-0.001-2.533,0.01-5.072-0.009-7.604c-0.003-0.422,0.093-0.598,0.543-0.646
	c0.988-0.109,0.777-0.152,1.095,0.575c0.363,0.827,0.707,1.665,1.063,2.495c0.063,0.148,0.153,0.282,0.231,0.424
	c0.047-0.015,0.094-0.027,0.141-0.042c0.016-0.165,0.045-0.332,0.046-0.495c0.004-0.939,0.014-1.879-0.005-2.814
	c-0.007-0.369,0.088-0.538,0.496-0.6c1.278-0.201,1.278-0.222,1.278,1.057c0,2.354-0.01,4.71,0.01,7.062
	c0.003,0.431-0.111,0.597-0.554,0.642c-0.91,0.099-0.742,0.244-1.088-0.562c-0.354-0.829-0.707-1.662-1.065-2.489
	c-0.063-0.148-0.154-0.281-0.233-0.421C23.509,48.543,23.453,48.567,23.397,48.592"/>
<path fill-rule="evenodd" clip-rule="evenodd" fill="#881719" d="M20.374,48.936c0,1.118-0.01,2.237,0.006,3.354
	c0.006,0.367-0.082,0.532-0.492,0.581c-1.29,0.15-1.306,0.165-1.289-1.132c0.006-0.423-0.1-0.563-0.546-0.512
	c-0.431,0.052-0.566,0.188-0.561,0.625c0.018,1.315,0,1.313-1.318,1.432c-0.338,0.029-0.463-0.057-0.461-0.405
	c0.012-2.252-0.008-4.504,0.014-6.759c0.011-1.169,0.545-1.698,1.724-1.833c0.46-0.053,0.921-0.111,1.381-0.152
	c0.985-0.086,1.499,0.322,1.525,1.303c0.032,1.162,0.008,2.334,0.008,3.501C20.367,48.937,20.371,48.937,20.374,48.936
	 M18.589,47.696c0-0.542-0.018-1.082,0.006-1.627c0.017-0.369-0.186-0.391-0.461-0.323c-0.255,0.063-0.637-0.092-0.633,0.429
	c0.008,1.082,0.005,2.166,0.001,3.25c-0.002,0.515,0.381,0.283,0.638,0.289c0.289,0.004,0.471-0.088,0.455-0.441
	C18.573,48.751,18.589,48.222,18.589,47.696"/>
<path fill-rule="evenodd" clip-rule="evenodd" fill="#881719" d="M51.281,43.938c0-0.906-0.009-1.812,0.002-2.717
	c0.014-1.228,0.527-1.771,1.756-1.836c0.461-0.022,0.922-0.043,1.383-0.049c1.096-0.013,1.601,0.453,1.639,1.568
	c0.038,1.168,0.014,2.338,0.015,3.507c0,0.708,0.019,1.417-0.009,2.124c-0.046,1.165-0.545,1.626-1.702,1.66
	c-0.478,0.015-0.955,0.033-1.433,0.054c-1.082,0.046-1.596-0.412-1.648-1.496c-0.001-0.032-0.002-0.067-0.002-0.099V43.938z
	 M54.288,40.872c-0.264,0.008-0.444,0.034-0.619,0.018c-0.464-0.045-0.627,0.129-0.616,0.615c0.029,1.557,0.031,3.117-0.001,4.678
	c-0.01,0.492,0.187,0.567,0.608,0.537c0.378-0.027,0.657-0.022,0.64-0.554c-0.037-1.163-0.012-2.33-0.012-3.495V40.872z"/>
<path fill-rule="evenodd" clip-rule="evenodd" fill="#881719" d="M42.635,47.747c0.261-0.036,0.556-0.048,0.84-0.13
	c0.104-0.03,0.253-0.233,0.261-0.351c0.03-0.463,0.044-0.931-0.007-1.379c-0.016-0.144-0.229-0.315-0.386-0.33
	c-0.299-0.026-0.621,0.055-0.934,0.086c-0.925,0.094-1.556-0.383-1.607-1.306c-0.044-0.765-0.04-1.543-0.001-2.319
	c0.041-0.806,0.521-1.359,1.319-1.522c0.672-0.137,1.351-0.229,2.022-0.274c0.79-0.051,1.211,0.347,1.311,1.125
	c0.004,0.03,0.008,0.063,0.012,0.096c0.136,1.353-0.095,1.609-1.465,1.626c-0.109,0.001-0.221-0.148-0.29-0.257
	c-0.044-0.068-0.011-0.191-0.012-0.291c-0.003-0.738-0.199-0.871-0.944-0.588c-0.1,0.039-0.227,0.221-0.232,0.328
	c-0.023,0.479-0.04,0.963,0.01,1.426c0.016,0.14,0.238,0.305,0.394,0.314c0.335,0.021,0.688-0.054,1.033-0.074
	c0.826-0.049,1.409,0.383,1.472,1.205c0.063,0.825,0.061,1.672,0.005,2.512c-0.052,0.781-0.574,1.291-1.342,1.414
	c-0.641,0.104-1.284,0.192-1.926,0.263c-0.763,0.084-1.27-0.298-1.358-1.042c-0.049-0.399-0.042-0.817-0.016-1.23
	c0.007-0.111,0.178-0.236,0.279-0.35c0.018-0.02,0.063-0.018,0.096-0.023c0.426-0.074,0.977-0.328,1.24-0.164
	C42.644,46.658,42.563,47.265,42.635,47.747"/>
<path fill-rule="evenodd" clip-rule="evenodd" fill="#881719" d="M39.953,48.146c0.043,0.096,0.055,0.107,0.056,0.124
	c0.085,1.365,0.085,1.362-1.284,1.579c-0.841,0.133-1.681,0.259-2.52,0.415c-0.317,0.059-0.439-0.021-0.438-0.347
	c0.008-2.685,0.008-5.369,0-8.049c0-0.307,0.129-0.423,0.416-0.469c1.151-0.184,2.304-0.371,3.456-0.559
	c0.297-0.049,0.405,0.039,0.387,0.35c-0.08,1.344,0.073,1.102-1.121,1.301c-1.351,0.223-1.352,0.219-1.35,1.588
	c0,0.703,0,0.703,0.7,0.59c0.115-0.018,0.232-0.025,0.346-0.057c0.339-0.093,0.502,0.004,0.432,0.374
	c-0.01,0.05-0.007,0.099-0.01,0.148c-0.044,1.124,0.005,0.911-0.957,1.062c-0.375,0.059-0.547,0.176-0.518,0.578
	c0.03,0.421,0.025,0.852,0.001,1.283c-0.022,0.381,0.134,0.465,0.492,0.396C38.68,48.329,39.317,48.243,39.953,48.146"/>
<path fill-rule="evenodd" clip-rule="evenodd" fill="#881719" d="M34.07,45.364c0,0.225,0.004,0.368-0.001,0.514
	c-0.033,0.979-0.034,0.994-0.999,1.155c-0.359,0.06-0.493,0.185-0.484,0.56c0.023,0.932-0.002,1.875,0.013,2.811
	c0.006,0.318-0.062,0.48-0.431,0.548c-1.354,0.252-1.354,0.265-1.354-1.089c0-2.32,0.015-4.645-0.013-6.959
	c-0.004-0.491,0.158-0.637,0.618-0.702c1.036-0.147,2.073-0.334,3.11-0.526c0.361-0.067,0.492,0.016,0.463,0.403
	c-0.094,1.205,0.111,1.032-1.09,1.24c-1.309,0.229-1.311,0.226-1.308,1.479c0.003,0.867-0.124,0.84,0.822,0.678
	C33.612,45.442,33.806,45.41,34.07,45.364"/>
<path fill-rule="evenodd" clip-rule="evenodd" fill="#881719" d="M47.429,44.986c0-1.052-0.012-2.103,0.007-3.157
	c0.006-0.346-0.063-0.492-0.455-0.445c-0.899,0.11-0.875,0.088-0.866-0.816c0.003-0.462,0.141-0.65,0.622-0.689
	c1.134-0.095,2.269-0.216,3.403-0.317c0.34-0.03,0.496,0.065,0.435,0.422c-0.014,0.082-0.008,0.164-0.013,0.247
	c-0.048,0.829-0.049,0.848-0.86,0.895c-0.401,0.024-0.5,0.176-0.496,0.555c0.016,2.088-0.002,4.178,0.016,6.264
	c0.003,0.41-0.077,0.585-0.537,0.618c-1.254,0.094-1.255,0.122-1.255-1.157V44.986z"/>
<path fill-rule="evenodd" clip-rule="evenodd" fill="#881719" d="M29.54,46.961c0,1.298-0.013,2.601,0.007,3.896
	c0.006,0.384-0.071,0.562-0.509,0.629c-1.28,0.197-1.28,0.215-1.28-1.088c0-2.318,0.011-4.639-0.01-6.953
	c-0.004-0.457,0.1-0.653,0.595-0.725c1.196-0.174,1.197-0.197,1.197,0.987V46.961z"/>
<path fill="#010101" d="M56.073,52.115c-15.889,0.092-31.777,5.435-47.667,5.526c-0.229,0-0.417-0.115-0.417-0.344
	c0-0.231,0.188-0.348,0.417-0.349c15.89-0.093,31.778-5.435,47.667-5.526c0.23-0.002,0.418,0.114,0.418,0.344
	C56.491,51.998,56.304,52.113,56.073,52.115"/>
<path fill="#010101" d="M56.073,50.729c-15.889,0.095-31.777,5.435-47.667,5.526c-0.1,0.002-0.179-0.073-0.179-0.172
	s0.079-0.172,0.179-0.174c15.89-0.092,31.778-5.434,47.667-5.526c0.099-0.001,0.179,0.073,0.179,0.173
	C56.252,50.654,56.172,50.729,56.073,50.729"/>
<path fill="#010101" d="M56.073,6.731c-15.889,0.093-31.777,5.434-47.667,5.526c-0.229,0.002-0.417-0.114-0.417-0.344
	c0-0.231,0.188-0.347,0.417-0.348c15.89-0.093,31.778-5.435,47.667-5.527c0.23-0.001,0.418,0.115,0.418,0.345
	C56.491,6.614,56.304,6.729,56.073,6.731"/>
<path fill="#010101" d="M56.073,7.771c-15.889,0.092-31.777,5.434-47.667,5.525c-0.1,0.001-0.179-0.073-0.179-0.171
	c0-0.099,0.079-0.173,0.179-0.174c15.89-0.093,31.778-5.435,47.667-5.528c0.099,0,0.179,0.075,0.179,0.173
	C56.252,7.695,56.172,7.771,56.073,7.771"/>
<path fill="#099DD9" d="M10.429,23.634c-1.494,0.011-2.416-1.013-2.416-2.727v-2.342c0-1.718,0.848-2.485,2.213-2.525
	c0.812-0.024,1.624-0.061,2.436-0.109c1.383-0.085,2.231,0.612,2.231,2.33v1.291c0,0.165-0.11,0.286-0.295,0.319
	c-0.67,0.091-1.341,0.175-2.011,0.251c-0.166,0.01-0.295-0.094-0.295-0.259v-1.458c0-0.129-0.111-0.234-0.24-0.227
	c-0.399,0.021-0.8,0.039-1.199,0.055c-0.166,0.005-0.295,0.102-0.295,0.25v2.398c0,0.258,0.129,0.457,0.479,0.461
	c0.479-0.007,0.96-0.018,1.439-0.033c1.513-0.051,2.416,0.86,2.416,2.578v2.306c0,1.713-0.849,2.566-2.214,2.649
	c-0.812,0.048-1.623,0.085-2.435,0.11c-1.384,0.041-2.231-0.741-2.231-2.456v-1.291c0-0.166,0.128-0.276,0.294-0.296
	c0.671-0.04,1.341-0.088,2.012-0.146c0.184-0.007,0.295,0.1,0.295,0.267v1.457c0,0.128,0.092,0.237,0.239,0.231
	c0.406-0.016,0.812-0.033,1.218-0.056c0.147-0.007,0.276-0.106,0.276-0.236v-2.379c0-0.259-0.11-0.435-0.479-0.435
	C11.388,23.622,10.907,23.631,10.429,23.634"/>
<path fill="#099DD9" d="M19.319,17.523c-0.147,0.018-0.239,0.14-0.239,0.269V20.3c0,0.167,0.11,0.264,0.295,0.242
	c0.534-0.067,1.07-0.135,1.605-0.207c0.184-0.024,0.294,0.071,0.275,0.239c-0.037,0.565-0.072,1.13-0.109,1.694
	c-0.02,0.151-0.148,0.278-0.314,0.3c-0.504,0.067-1.008,0.133-1.513,0.194c-0.147,0.018-0.239,0.14-0.239,0.269v2.729
	c0,0.167,0.092,0.267,0.239,0.248c1.033-0.127,2.065-0.264,3.1-0.413c0.184-0.025,0.295,0.07,0.276,0.239
	c-0.037,0.564-0.074,1.128-0.11,1.693c-0.019,0.15-0.148,0.28-0.313,0.304c-1.84,0.26-3.678,0.493-5.516,0.679
	c-0.185,0.018-0.277-0.083-0.277-0.249V15.902c0-0.166,0.093-0.286,0.277-0.305c1.888-0.191,3.775-0.43,5.663-0.7
	c0.184-0.026,0.295,0.067,0.276,0.236c-0.037,0.566-0.074,1.13-0.11,1.696c-0.019,0.149-0.148,0.279-0.313,0.302
	C21.287,17.271,20.303,17.403,19.319,17.523"/>
<path fill="#099DD9" d="M26.107,27.248c-1.364,0.219-2.213-0.431-2.213-2.145v-7.932c-0.001-1.716,0.849-2.617,2.213-2.835
	c0.781-0.125,1.562-0.254,2.344-0.384c1.364-0.227,2.231,0.399,2.231,2.113v1.366c0,0.166-0.129,0.298-0.295,0.327
	c-0.67,0.138-1.341,0.276-2.011,0.412c-0.185,0.031-0.296-0.062-0.296-0.228v-1.475c0-0.147-0.129-0.218-0.294-0.192
	c-0.352,0.06-0.701,0.117-1.052,0.174c-0.149,0.024-0.24,0.149-0.24,0.278v7.969c0,0.166,0.111,0.259,0.295,0.229
	c0.345-0.056,0.688-0.113,1.033-0.169c0.147-0.025,0.258-0.154,0.258-0.283v-1.366c0-0.166,0.111-0.295,0.296-0.325
	c0.67-0.136,1.341-0.274,2.011-0.413c0.166-0.028,0.295,0.062,0.295,0.227v1.402c0,1.715-0.866,2.639-2.231,2.867
	C27.669,26.995,26.889,27.123,26.107,27.248"/>
<path fill="#099DD9" d="M34.464,25.843c-1.365,0.231-2.214-0.396-2.214-2.113V13.567c0-0.166,0.093-0.275,0.277-0.307
	c0.683-0.116,1.364-0.232,2.048-0.348c0.165-0.028,0.276,0.045,0.276,0.211v10.201c0,0.148,0.129,0.217,0.295,0.19
	c0.406-0.067,0.812-0.136,1.217-0.203c0.13-0.022,0.24-0.114,0.24-0.28c0.007-3.401,0.013-6.803,0.019-10.205
	c0-0.165,0.129-0.279,0.296-0.306c0.67-0.111,1.34-0.219,2.01-0.325c0.185-0.029,0.296,0.045,0.296,0.211v10.166
	c0,1.715-0.849,2.621-2.232,2.848C36.148,25.559,35.306,25.7,34.464,25.843"/>
<path fill="#099DD9" d="M43.908,22.001c-0.166,0.023-0.295,0.132-0.295,0.279v1.864c0,0.166-0.093,0.289-0.277,0.313
	c-0.682,0.092-1.365,0.19-2.047,0.29c-0.147,0.022-0.277-0.069-0.277-0.236v-12.36c0-0.166,0.13-0.295,0.277-0.317
	c1.42-0.209,2.841-0.402,4.261-0.572c1.365-0.162,2.233,0.53,2.233,2.244v5.553c0,0.977-0.296,1.652-0.795,2.019
	c-0.092,0.066-0.109,0.215-0.055,0.358c0.309,0.721,0.615,1.446,0.923,2.172c0.073,0.158,0.018,0.311-0.185,0.332
	c-0.684,0.07-1.365,0.145-2.048,0.226c-0.147,0.018-0.277-0.04-0.351-0.198c-0.265-0.632-0.529-1.263-0.793-1.893
	c-0.037-0.087-0.111-0.133-0.222-0.119C44.143,21.971,44.025,21.986,43.908,22.001 M45.181,13.797c0-0.165-0.11-0.264-0.295-0.24
	c-0.344,0.043-0.688,0.088-1.033,0.133c-0.147,0.019-0.239,0.142-0.239,0.271v5.589c0,0.167,0.11,0.263,0.295,0.238
	c0.344-0.046,0.688-0.09,1.033-0.133c0.147-0.017,0.239-0.14,0.239-0.305V13.797z"/>
<path fill="#099DD9" d="M52.301,12.875c-0.146,0.008-0.239,0.124-0.239,0.253v2.509c0,0.166,0.11,0.27,0.295,0.26
	c0.535-0.028,1.07-0.051,1.605-0.07c0.184-0.006,0.295,0.102,0.275,0.269c-0.036,0.559-0.073,1.121-0.109,1.681
	c-0.019,0.149-0.148,0.263-0.313,0.269c-0.505,0.018-1.009,0.041-1.514,0.068c-0.146,0.008-0.239,0.124-0.239,0.253v2.73
	c0,0.167,0.092,0.272,0.239,0.264c1.034-0.056,2.066-0.093,3.1-0.108c0.184-0.004,0.295,0.106,0.277,0.272
	c-0.037,0.56-0.074,1.121-0.111,1.68c-0.019,0.149-0.147,0.26-0.313,0.263c-1.838,0.031-3.678,0.131-5.516,0.282
	c-0.185,0.015-0.276-0.088-0.276-0.255V11.137c0-0.166,0.092-0.284,0.276-0.3c1.888-0.155,3.774-0.255,5.663-0.284
	c0.184-0.002,0.295,0.107,0.277,0.273c-0.037,0.56-0.074,1.12-0.111,1.68c-0.019,0.148-0.147,0.261-0.313,0.264
	C54.27,12.786,53.285,12.822,52.301,12.875"/>
<path fill="#099DD9" d="M10.62,38.116c-1.476,0.014-2.387-0.994-2.387-2.686v-2.313c0-1.695,0.838-2.455,2.186-2.499
	c0.802-0.026,1.604-0.064,2.404-0.113c1.367-0.085,2.205,0.601,2.205,2.297v1.275c0,0.163-0.109,0.282-0.292,0.314
	c-0.662,0.093-1.323,0.176-1.985,0.252c-0.164,0.011-0.292-0.092-0.292-0.256v-1.439c0-0.127-0.109-0.229-0.236-0.224
	c-0.395,0.022-0.789,0.041-1.184,0.057c-0.164,0.007-0.292,0.103-0.292,0.248v2.368c0,0.255,0.128,0.451,0.474,0.455
	c0.474-0.008,0.947-0.021,1.42-0.036c1.495-0.054,2.388,0.845,2.388,2.541v2.278c0,1.69-0.838,2.535-2.187,2.619
	c-0.802,0.049-1.603,0.088-2.404,0.113c-1.366,0.044-2.204-0.727-2.204-2.419v-1.274c0-0.164,0.128-0.274,0.292-0.293
	c0.662-0.041,1.323-0.092,1.984-0.15c0.183-0.008,0.292,0.099,0.292,0.263v1.438c0,0.127,0.091,0.233,0.237,0.228
	c0.4-0.017,0.802-0.035,1.202-0.057c0.146-0.009,0.272-0.106,0.272-0.234v-2.351c0-0.254-0.108-0.43-0.474-0.428
	C11.567,38.104,11.094,38.111,10.62,38.116"/>
<path fill="#099DD9" d="M19.399,32.07c-0.146,0.018-0.237,0.138-0.237,0.266v2.477c0,0.163,0.109,0.26,0.292,0.236
	c0.527-0.063,1.056-0.133,1.584-0.205c0.183-0.023,0.292,0.072,0.273,0.238c-0.036,0.557-0.073,1.114-0.109,1.672
	c-0.019,0.148-0.146,0.274-0.31,0.297c-0.498,0.066-0.996,0.131-1.493,0.191c-0.146,0.018-0.237,0.139-0.237,0.266v2.696
	c0,0.163,0.091,0.263,0.237,0.244c1.02-0.125,2.04-0.264,3.06-0.409c0.183-0.025,0.292,0.067,0.273,0.234
	c-0.037,0.559-0.072,1.115-0.109,1.673c-0.019,0.147-0.146,0.277-0.31,0.3c-1.816,0.26-3.631,0.488-5.446,0.674
	c-0.182,0.019-0.273-0.08-0.273-0.246V30.471c0-0.164,0.092-0.282,0.273-0.3c1.864-0.191,3.729-0.429,5.592-0.696
	c0.183-0.026,0.292,0.068,0.273,0.234c-0.037,0.558-0.072,1.116-0.109,1.674c-0.019,0.148-0.146,0.276-0.31,0.299
	C21.342,31.82,20.37,31.951,19.399,32.07"/>
<path fill="#099DD9" d="M24.244,41.962c-0.182,0.028-0.273-0.068-0.273-0.232V31.712c0-1.695,0.838-2.584,2.186-2.8
	c0.771-0.123,1.543-0.25,2.313-0.379c1.348-0.225,2.204,0.393,2.204,2.087v10.02c0,0.164-0.127,0.293-0.292,0.321
	c-0.661,0.113-1.323,0.224-1.985,0.335c-0.182,0.031-0.291-0.061-0.291-0.225v-2.096c0-0.164-0.109-0.254-0.291-0.224
	c-0.347,0.056-0.692,0.114-1.039,0.17c-0.146,0.023-0.236,0.147-0.236,0.275v2.131c0,0.164-0.109,0.291-0.273,0.317
	C25.592,41.754,24.918,41.859,24.244,41.962 M28.105,36.244v-5.228c0-0.127-0.109-0.218-0.255-0.194
	c-0.358,0.059-0.717,0.118-1.075,0.176c-0.146,0.023-0.236,0.147-0.236,0.275v5.228c0,0.164,0.109,0.256,0.291,0.227
	c0.341-0.056,0.681-0.112,1.021-0.168C28.015,36.515,28.105,36.408,28.105,36.244"/>
<path fill="#099DD9" d="M35.3,37.774c-0.163,0.027-0.291,0.14-0.291,0.285v1.84c0,0.164-0.091,0.289-0.272,0.32
	c-0.675,0.113-1.349,0.229-2.023,0.344c-0.145,0.025-0.272-0.063-0.272-0.227V28.133c0-0.163,0.128-0.295,0.272-0.32
	c1.403-0.24,2.806-0.479,4.208-0.71c1.348-0.221,2.204,0.411,2.204,2.104v5.483c0,0.965-0.291,1.647-0.783,2.035
	c-0.091,0.07-0.109,0.219-0.056,0.355c0.305,0.699,0.608,1.396,0.912,2.098c0.073,0.151,0.019,0.307-0.183,0.338
	c-0.674,0.105-1.348,0.215-2.022,0.326c-0.145,0.023-0.272-0.029-0.345-0.181c-0.262-0.612-0.522-1.226-0.783-1.837
	c-0.038-0.085-0.109-0.128-0.22-0.109C35.53,37.735,35.414,37.754,35.3,37.774 M36.557,29.622c0-0.164-0.109-0.254-0.291-0.225
	c-0.34,0.057-0.68,0.114-1.021,0.171c-0.146,0.025-0.236,0.15-0.236,0.277v5.519c0,0.164,0.108,0.255,0.291,0.225
	c0.34-0.058,0.681-0.113,1.021-0.171c0.146-0.024,0.236-0.149,0.236-0.313V29.622z"/>
<path fill="#099DD9" d="M42.859,38.945c-1.349,0.187-2.188-0.449-2.188-2.144v-7.833c0-1.693,0.839-2.587,2.188-2.774
	c0.771-0.106,1.542-0.208,2.313-0.302c1.348-0.164,2.204,0.515,2.204,2.208v1.349c0,0.163-0.127,0.286-0.291,0.303
	c-0.663,0.095-1.323,0.196-1.985,0.301c-0.183,0.024-0.291-0.073-0.291-0.236v-1.458c0-0.145-0.129-0.221-0.292-0.199
	c-0.347,0.044-0.692,0.089-1.038,0.135c-0.146,0.019-0.236,0.141-0.236,0.269v7.869c0,0.163,0.108,0.258,0.291,0.233
	c0.34-0.046,0.68-0.09,1.02-0.133c0.146-0.02,0.256-0.142,0.256-0.27v-1.346c0-0.166,0.108-0.289,0.291-0.312
	c0.662-0.104,1.322-0.206,1.985-0.302c0.164-0.016,0.291,0.078,0.291,0.244v1.384c0,1.694-0.856,2.545-2.204,2.709
	C44.401,38.736,43.631,38.839,42.859,38.945"/>
<path fill="#099DD9" d="M51.838,32.631c-0.163,0.01-0.291,0.127-0.291,0.272v4.866c0,0.164-0.091,0.278-0.273,0.289
	c-0.674,0.045-1.347,0.096-2.021,0.155c-0.146,0.013-0.273-0.086-0.273-0.249V25.759c0-0.163,0.128-0.284,0.273-0.297
	c0.675-0.059,1.348-0.11,2.021-0.154c0.183-0.013,0.273,0.092,0.273,0.255v4.628c0,0.163,0.109,0.264,0.291,0.253
	c0.419-0.024,0.839-0.045,1.258-0.064c0.146-0.007,0.255-0.12,0.255-0.284v-4.627c0-0.164,0.109-0.277,0.255-0.283
	c0.68-0.026,1.36-0.043,2.04-0.051c0.164-0.002,0.254,0.106,0.254,0.269V37.61c0,0.164-0.091,0.273-0.254,0.274
	c-0.68,0.009-1.36,0.025-2.04,0.052c-0.146,0.006-0.255-0.1-0.255-0.264v-4.845c0-0.164-0.128-0.268-0.291-0.26
	C52.652,32.586,52.245,32.608,51.838,32.631"/>
</svg>
